<?xml version="1.0" encoding="UTF-8" standalone="no"?>
<!DOCTYPE svg PUBLIC "-//W3C//DTD SVG 1.1//EN"
 "http://www.w3.org/Graphics/SVG/1.1/DTD/svg11.dtd">
<!-- Generated by graphviz version 2.40.1 (20161225.0304)
 -->
<!-- Title: G Pages: 1 -->
<svg width="340pt" height="303pt"
 viewBox="0.00 0.00 339.80 303.43" xmlns="http://www.w3.org/2000/svg" xmlns:xlink="http://www.w3.org/1999/xlink">
<g id="graph0" class="graph" transform="scale(1 1) rotate(0) translate(4 299.4264)">
<title>G</title><style>.edge>path:hover{stroke-width:8}</style>
<polygon fill="#ffffff" stroke="transparent" points="-4,4 -4,-299.4264 335.8047,-299.4264 335.8047,4 -4,4"/>
<!-- __script__ -->
<g id="node1" class="node">
<title>__script__</title><style>.edge>path:hover{stroke-width:8}</style>
<ellipse fill="#883a3a" stroke="#000000" cx="159.485" cy="-18" rx="30.0436" ry="18"/>
<text text-anchor="middle" x="159.485" y="-15.5" font-family="Helvetica,sans-Serif" font-size="10.00" fill="#ffffff">__script__</text>
</g>
<!-- matplotlib -->
<g id="node2" class="node">
<title>matplotlib</title><style>.edge>path:hover{stroke-width:8}</style>
<ellipse fill="#d0b824" stroke="#000000" cx="64.485" cy="-165.2132" rx="28.6898" ry="18"/>
<text text-anchor="middle" x="64.485" y="-162.7132" font-family="Helvetica,sans-Serif" font-size="10.00" fill="#000000">matplotlib</text>
</g>
<!-- matplotlib&#45;&gt;__script__ -->
<g id="edge1" class="edge">
<title>matplotlib&#45;&gt;__script__</title><style>.edge>path:hover{stroke-width:8}</style>
<path fill="none" stroke="#000000" d="M43.4307,-152.4537C23.3402,-138.4891 -2.4978,-114.7699 7.485,-90"/>
</g>
<!-- seaborn -->
<g id="node8" class="node">
<title>seaborn</title><style>.edge>path:hover{stroke-width:8}</style>
<ellipse fill="#b83da6" stroke="#000000" cx="90.485" cy="-90" rx="27" ry="18"/>
<text text-anchor="middle" x="90.485" y="-87.5" font-family="Helvetica,sans-Serif" font-size="10.00" fill="#ffffff">seaborn</text>
</g>
<!-- matplotlib&#45;&gt;seaborn -->
<g id="edge2" class="edge">
<title>matplotlib&#45;&gt;seaborn</title><style>.edge>path:hover{stroke-width:8}</style>
<path fill="none" stroke="#000000" d="M70.6466,-147.3887C73.7551,-138.3965 77.5927,-127.2948 81.0619,-117.2592"/>
<polygon fill="#d0b824" stroke="#000000" points="84.4083,-118.2913 84.3676,-107.6965 77.7924,-116.0043 84.4083,-118.2913"/>
</g>
<!-- matplotlib_pyplot -->
<g id="node3" class="node">
<title>matplotlib_pyplot</title><style>.edge>path:hover{stroke-width:8}</style>
<ellipse fill="#ac9d49" stroke="#000000" cx="147.485" cy="-165.2132" rx="36.125" ry="21.4286"/>
<text text-anchor="middle" x="147.485" y="-168.2132" font-family="Helvetica,sans-Serif" font-size="10.00" fill="#000000">matplotlib.</text>
<text text-anchor="middle" x="147.485" y="-157.2132" font-family="Helvetica,sans-Serif" font-size="10.00" fill="#000000">pyplot</text>
</g>
<!-- matplotlib_pyplot&#45;&gt;__script__ -->
<g id="edge3" class="edge">
<title>matplotlib_pyplot&#45;&gt;__script__</title><style>.edge>path:hover{stroke-width:8}</style>
<path fill="none" stroke="#000000" d="M154.6975,-144.0959C158.9178,-128.9965 162.8193,-108.2094 159.485,-90"/>
<path fill="none" stroke="#000000" d="M159.485,-90C156.8735,-75.7381 156.6285,-59.619 157.1416,-46.2535"/>
<polygon fill="#ac9d49" stroke="#000000" points="160.6394,-46.3876 157.685,-36.2131 153.6496,-46.0093 160.6394,-46.3876"/>
</g>
<!-- numpy -->
<g id="node4" class="node">
<title>numpy</title><style>.edge>path:hover{stroke-width:8}</style>
<ellipse fill="#54e619" stroke="#000000" cx="64.485" cy="-277.4264" rx="27" ry="18"/>
<text text-anchor="middle" x="64.485" y="-274.9264" font-family="Helvetica,sans-Serif" font-size="10.00" fill="#000000">numpy</text>
</g>
<!-- numpy&#45;&gt;__script__ -->
<g id="edge4" class="edge">
<title>numpy&#45;&gt;__script__</title><style>.edge>path:hover{stroke-width:8}</style>
<path fill="none" stroke="#000000" d="M7.485,-90C25.0694,-46.3684 80.7186,-29.1382 119.5593,-22.3595"/>
<polygon fill="#54e619" stroke="#000000" points="120.2003,-25.8017 129.5301,-20.7812 119.1059,-18.8878 120.2003,-25.8017"/>
<path fill="none" stroke="#000000" d="M64.485,-222.9264C72.3897,-200.883 37.7129,-206.977 26.485,-186.4264 5.542,-148.0942 -8.8429,-130.5137 7.485,-90"/>
<path fill="none" stroke="#000000" d="M61.3718,-259.1946C60.2682,-248.3307 60.2012,-234.4567 64.485,-222.9264"/>
</g>
<!-- numpy&#45;&gt;matplotlib -->
<g id="edge5" class="edge">
<title>numpy&#45;&gt;matplotlib</title><style>.edge>path:hover{stroke-width:8}</style>
<path fill="none" stroke="#000000" d="M64.485,-222.9264C67.8024,-213.6754 68.5777,-203.0409 68.2719,-193.4412"/>
<polygon fill="#54e619" stroke="#000000" points="71.7424,-192.8994 67.5451,-183.1715 64.7598,-193.3936 71.7424,-192.8994"/>
</g>
<!-- numpy&#45;&gt;matplotlib_pyplot -->
<g id="edge6" class="edge">
<title>numpy&#45;&gt;matplotlib_pyplot</title><style>.edge>path:hover{stroke-width:8}</style>
<path fill="none" stroke="#000000" d="M64.485,-222.9264C68.4329,-211.9172 90.7664,-196.7285 111.2718,-184.6961"/>
<polygon fill="#54e619" stroke="#000000" points="113.2536,-187.5945 120.1896,-179.5855 109.773,-181.5211 113.2536,-187.5945"/>
</g>
<!-- pandas -->
<g id="node7" class="node">
<title>pandas</title><style>.edge>path:hover{stroke-width:8}</style>
<ellipse fill="#5b31c4" stroke="#000000" cx="228.485" cy="-165.2132" rx="27" ry="18"/>
<text text-anchor="middle" x="228.485" y="-162.7132" font-family="Helvetica,sans-Serif" font-size="10.00" fill="#ffffff">pandas</text>
</g>
<!-- numpy&#45;&gt;pandas -->
<g id="edge7" class="edge">
<title>numpy&#45;&gt;pandas</title><style>.edge>path:hover{stroke-width:8}</style>
<path fill="none" stroke="#000000" d="M64.485,-222.9264C84.4534,-167.2419 138.1171,-209.7424 192.485,-186.4264 195.0226,-185.3381 197.6015,-184.1045 200.1533,-182.7928"/>
<polygon fill="#54e619" stroke="#000000" points="202.0928,-185.72 209.1536,-177.8208 198.708,-179.5927 202.0928,-185.72"/>
</g>
<!-- paginglib -->
<g id="node5" class="node">
<title>paginglib</title><style>.edge>path:hover{stroke-width:8}</style>
<ellipse fill="#4cb387" stroke="#000000" cx="215.485" cy="-90" rx="27.8353" ry="18"/>
<text text-anchor="middle" x="215.485" y="-87.5" font-family="Helvetica,sans-Serif" font-size="10.00" fill="#000000">paginglib</text>
</g>
<!-- paginglib&#45;&gt;__script__ -->
<g id="edge8" class="edge">
<title>paginglib&#45;&gt;__script__</title><style>.edge>path:hover{stroke-width:8}</style>
<path fill="none" stroke="#000000" d="M202.7777,-73.6621C195.7186,-64.5861 186.7888,-53.1049 178.8754,-42.9306"/>
<polygon fill="#4cb387" stroke="#000000" points="181.4327,-40.5176 172.5306,-34.7729 175.9073,-44.8153 181.4327,-40.5176"/>
</g>
<!-- pagingparam -->
<g id="node6" class="node">
<title>pagingparam</title><style>.edge>path:hover{stroke-width:8}</style>
<ellipse fill="#538cb6" stroke="#000000" cx="296.485" cy="-90" rx="35.1405" ry="18"/>
<text text-anchor="middle" x="296.485" y="-87.5" font-family="Helvetica,sans-Serif" font-size="10.00" fill="#000000">pagingparam</text>
</g>
<!-- pagingparam&#45;&gt;__script__ -->
<g id="edge9" class="edge">
<title>pagingparam&#45;&gt;__script__</title><style>.edge>path:hover{stroke-width:8}</style>
<path fill="none" stroke="#000000" d="M271.6753,-76.9613C249.112,-65.1032 215.6943,-47.5407 191.1991,-34.6673"/>
<polygon fill="#538cb6" stroke="#000000" points="192.7695,-31.5387 182.2892,-29.9847 189.5129,-37.7351 192.7695,-31.5387"/>
</g>
<!-- pandas&#45;&gt;__script__ -->
<g id="edge10" class="edge">
<title>pandas&#45;&gt;__script__</title><style>.edge>path:hover{stroke-width:8}</style>
<path fill="none" stroke="#000000" d="M208.4589,-152.9381C189.9479,-140.0164 164.5597,-117.7144 159.485,-90"/>
</g>
<!-- pandas&#45;&gt;paginglib -->
<g id="edge11" class="edge">
<title>pandas&#45;&gt;paginglib</title><style>.edge>path:hover{stroke-width:8}</style>
<path fill="none" stroke="#000000" d="M225.338,-147.0062C223.837,-138.3219 222.0075,-127.737 220.3343,-118.0563"/>
<polygon fill="#5b31c4" stroke="#000000" points="223.755,-117.2971 218.6029,-108.0393 216.8573,-118.4894 223.755,-117.2971"/>
</g>
<!-- seaborn&#45;&gt;__script__ -->
<g id="edge12" class="edge">
<title>seaborn&#45;&gt;__script__</title><style>.edge>path:hover{stroke-width:8}</style>
<path fill="none" stroke="#000000" d="M105.1181,-74.7307C114.5035,-64.9372 126.8646,-52.0387 137.4284,-41.0156"/>
<polygon fill="#b83da6" stroke="#000000" points="140.0038,-43.3867 144.3959,-33.7451 134.9499,-38.5433 140.0038,-43.3867"/>
</g>
</g>
</svg>
