<?xml version="1.0" encoding="UTF-8" standalone="no"?>
<!DOCTYPE svg PUBLIC "-//W3C//DTD SVG 1.1//EN"
 "http://www.w3.org/Graphics/SVG/1.1/DTD/svg11.dtd">
<!-- Generated by graphviz version 2.38.0 (20140413.2041)
 -->
<!-- Title: G Pages: 1 -->
<svg width="336pt" height="375pt"
 viewBox="0.00 0.00 336.01 375.43" xmlns="http://www.w3.org/2000/svg" xmlns:xlink="http://www.w3.org/1999/xlink">
<g id="graph0" class="graph" transform="scale(1 1) rotate(0) translate(4 371.426)">
<title>G</title><style>.edge>path:hover{stroke-width:8}</style>
<polygon fill="white" stroke="none" points="-4,4 -4,-371.426 332.005,-371.426 332.005,4 -4,4"/>
<!-- __script__ -->
<g id="node1" class="node"><title>__script__</title><style>.edge>path:hover{stroke-width:8}</style>
<ellipse fill="#883a3a" stroke="black" cx="132.622" cy="-18" rx="36.4942" ry="18"/>
<text text-anchor="middle" x="132.622" y="-15.5" font-family="Helvetica,sans-Serif" font-size="10.00" fill="#ffffff">__script__</text>
</g>
<!-- matplotlib -->
<g id="node2" class="node"><title>matplotlib</title><style>.edge>path:hover{stroke-width:8}</style>
<ellipse fill="#c8b023" stroke="black" cx="69.6216" cy="-162" rx="34.9638" ry="18"/>
<text text-anchor="middle" x="69.6216" y="-159.5" font-family="Helvetica,sans-Serif" font-size="10.00" fill="#000000">matplotlib</text>
</g>
<!-- matplotlib&#45;&gt;__script__ -->
<g id="edge1" class="edge"><title>matplotlib&#45;&gt;__script__</title><style>.edge>path:hover{stroke-width:8}</style>
<path fill="none" stroke="black" d="M45.4246,-148.861C24.4052,-136.441 -1.49519,-115.525 6.62163,-91"/>
</g>
<!-- seaborn -->
<g id="node8" class="node"><title>seaborn</title><style>.edge>path:hover{stroke-width:8}</style>
<ellipse fill="#b83da6" stroke="black" cx="71.6216" cy="-90" rx="30.0436" ry="18"/>
<text text-anchor="middle" x="71.6216" y="-87.5" font-family="Helvetica,sans-Serif" font-size="10.00" fill="#ffffff">seaborn</text>
</g>
<!-- matplotlib&#45;&gt;seaborn -->
<g id="edge2" class="edge"><title>matplotlib&#45;&gt;seaborn</title><style>.edge>path:hover{stroke-width:8}</style>
<path fill="none" stroke="black" d="M70.116,-143.697C70.3364,-135.983 70.6013,-126.712 70.847,-118.112"/>
<polygon fill="#c8b023" stroke="black" points="74.3458,-118.2 71.1329,-108.104 67.3487,-118 74.3458,-118.2"/>
</g>
<!-- matplotlib_pyplot -->
<g id="node3" class="node"><title>matplotlib_pyplot</title><style>.edge>path:hover{stroke-width:8}</style>
<ellipse fill="#b8a63d" stroke="black" cx="132.622" cy="-237.213" rx="43.6818" ry="21.4286"/>
<text text-anchor="middle" x="132.622" y="-240.213" font-family="Helvetica,sans-Serif" font-size="10.00" fill="#000000">matplotlib.</text>
<text text-anchor="middle" x="132.622" y="-229.213" font-family="Helvetica,sans-Serif" font-size="10.00" fill="#000000">pyplot</text>
</g>
<!-- matplotlib_pyplot&#45;&gt;__script__ -->
<g id="edge3" class="edge"><title>matplotlib_pyplot&#45;&gt;__script__</title><style>.edge>path:hover{stroke-width:8}</style>
<path fill="none" stroke="black" d="M132.622,-89C129.93,-75.1119 129.686,-59.3805 130.22,-46.3538"/>
<polygon fill="#b8a63d" stroke="black" points="133.727,-46.3342 130.816,-36.1473 126.739,-45.9265 133.727,-46.3342"/>
<path fill="none" stroke="black" d="M135.047,-215.777C137.862,-187.456 141.113,-134.808 132.622,-91"/>
</g>
<!-- matplotlib_pyplot&#45;&gt;matplotlib -->
<g id="edge4" class="edge"><title>matplotlib_pyplot&#45;&gt;matplotlib</title><style>.edge>path:hover{stroke-width:8}</style>
<path fill="none" stroke="black" d="M116.398,-217.359C108.343,-207.998 98.5294,-196.594 89.9751,-186.653"/>
<polygon fill="#b8a63d" stroke="black" points="92.618,-184.358 83.4424,-179.061 87.312,-188.924 92.618,-184.358"/>
</g>
<!-- numpy -->
<g id="node4" class="node"><title>numpy</title><style>.edge>path:hover{stroke-width:8}</style>
<ellipse fill="#54e619" stroke="black" cx="132.622" cy="-349.426" rx="27.1572" ry="18"/>
<text text-anchor="middle" x="132.622" y="-346.926" font-family="Helvetica,sans-Serif" font-size="10.00" fill="#000000">numpy</text>
</g>
<!-- numpy&#45;&gt;__script__ -->
<g id="edge5" class="edge"><title>numpy&#45;&gt;__script__</title><style>.edge>path:hover{stroke-width:8}</style>
<path fill="none" stroke="black" d="M6.62163,-89C18.0444,-54.4868 57.0801,-36.6023 88.7101,-27.588"/>
<polygon fill="#54e619" stroke="black" points="89.8964,-30.895 98.6749,-24.9631 88.1132,-24.1259 89.8964,-30.895"/>
<path fill="none" stroke="black" d="M132.622,-294.426C131.555,-265.971 101.281,-276.912 79.6216,-258.426 70.2434,-250.423 67.5108,-248.438 60.6216,-238.213"/>
<path fill="none" stroke="black" d="M132.947,-331.235C133.063,-320.86 133.07,-307.38 132.622,-295.426"/>
<path fill="none" stroke="black" d="M60.6216,-236.213C22.1472,-179.108 -15.0137,-156.37 6.62163,-91"/>
</g>
<!-- numpy&#45;&gt;matplotlib -->
<g id="edge6" class="edge"><title>numpy&#45;&gt;matplotlib</title><style>.edge>path:hover{stroke-width:8}</style>
<path fill="none" stroke="black" d="M60.6216,-236.213C51.4356,-222.579 53.7257,-204.208 58.2922,-189.28"/>
<polygon fill="#54e619" stroke="black" points="61.6823,-190.19 61.7042,-179.595 55.0801,-187.864 61.6823,-190.19"/>
</g>
<!-- numpy&#45;&gt;matplotlib_pyplot -->
<g id="edge7" class="edge"><title>numpy&#45;&gt;matplotlib_pyplot</title><style>.edge>path:hover{stroke-width:8}</style>
<path fill="none" stroke="black" d="M132.622,-294.426C132.622,-286.055 132.622,-276.982 132.622,-268.618"/>
<polygon fill="#54e619" stroke="black" points="136.122,-268.508 132.622,-258.508 129.122,-268.508 136.122,-268.508"/>
</g>
<!-- pandas -->
<g id="node7" class="node"><title>pandas</title><style>.edge>path:hover{stroke-width:8}</style>
<ellipse fill="#5b31c4" stroke="black" cx="190.622" cy="-162" rx="28.0137" ry="18"/>
<text text-anchor="middle" x="190.622" y="-159.5" font-family="Helvetica,sans-Serif" font-size="10.00" fill="#ffffff">pandas</text>
</g>
<!-- numpy&#45;&gt;pandas -->
<g id="edge8" class="edge"><title>numpy&#45;&gt;pandas</title><style>.edge>path:hover{stroke-width:8}</style>
<path fill="none" stroke="black" d="M132.622,-294.426C132.622,-265.951 171.64,-283.233 185.622,-258.426 197.291,-237.723 197.466,-210.309 195.357,-190.177"/>
<polygon fill="#54e619" stroke="black" points="198.808,-189.577 194.051,-180.11 191.866,-190.477 198.808,-189.577"/>
</g>
<!-- paginglib -->
<g id="node5" class="node"><title>paginglib</title><style>.edge>path:hover{stroke-width:8}</style>
<ellipse fill="#4cb387" stroke="black" cx="192.622" cy="-90" rx="32.2534" ry="18"/>
<text text-anchor="middle" x="192.622" y="-87.5" font-family="Helvetica,sans-Serif" font-size="10.00" fill="#000000">paginglib</text>
</g>
<!-- paginglib&#45;&gt;__script__ -->
<g id="edge9" class="edge"><title>paginglib&#45;&gt;__script__</title><style>.edge>path:hover{stroke-width:8}</style>
<path fill="none" stroke="black" d="M179.306,-73.4647C171.569,-64.4386 161.662,-52.88 152.966,-42.7349"/>
<polygon fill="#4cb387" stroke="black" points="155.482,-40.292 146.316,-34.9772 150.167,-44.8475 155.482,-40.292"/>
</g>
<!-- pagingparam -->
<g id="node6" class="node"><title>pagingparam</title><style>.edge>path:hover{stroke-width:8}</style>
<ellipse fill="#538cb6" stroke="black" cx="285.622" cy="-90" rx="42.2678" ry="18"/>
<text text-anchor="middle" x="285.622" y="-87.5" font-family="Helvetica,sans-Serif" font-size="10.00" fill="#000000">pagingparam</text>
</g>
<!-- pagingparam&#45;&gt;__script__ -->
<g id="edge10" class="edge"><title>pagingparam&#45;&gt;__script__</title><style>.edge>path:hover{stroke-width:8}</style>
<path fill="none" stroke="black" d="M257.914,-76.3235C232.648,-64.7637 195.194,-47.628 167.819,-35.1032"/>
<polygon fill="#538cb6" stroke="black" points="169.142,-31.8597 158.592,-30.882 166.23,-38.2252 169.142,-31.8597"/>
</g>
<!-- pandas&#45;&gt;__script__ -->
<g id="edge11" class="edge"><title>pandas&#45;&gt;__script__</title><style>.edge>path:hover{stroke-width:8}</style>
<path fill="none" stroke="black" d="M172.539,-147.881C157.296,-135.346 137.246,-114.861 132.622,-91"/>
</g>
<!-- pandas&#45;&gt;paginglib -->
<g id="edge12" class="edge"><title>pandas&#45;&gt;paginglib</title><style>.edge>path:hover{stroke-width:8}</style>
<path fill="none" stroke="black" d="M191.116,-143.697C191.336,-135.983 191.601,-126.712 191.847,-118.112"/>
<polygon fill="#5b31c4" stroke="black" points="195.346,-118.2 192.133,-108.104 188.349,-118 195.346,-118.2"/>
</g>
<!-- seaborn&#45;&gt;__script__ -->
<g id="edge13" class="edge"><title>seaborn&#45;&gt;__script__</title><style>.edge>path:hover{stroke-width:8}</style>
<path fill="none" stroke="black" d="M84.8577,-73.811C92.71,-64.8002 102.839,-53.1772 111.747,-42.9548"/>
<polygon fill="#b83da6" stroke="black" points="114.631,-44.9721 118.562,-35.1336 109.354,-40.3732 114.631,-44.9721"/>
</g>
</g>
</svg>
